<?xml version="1.0" encoding="utf-8" ?><svg xmlns="http://www.w3.org/2000/svg" xmlns:xlink="http://www.w3.org/1999/xlink" width="2048" height="2048" viewBox="0 0 2048 2048"><path fill="#0F0236" transform="scale(2 2)" d="M0 0L1024 0L1024 1024L0 1024L0 0Z"/><path fill="#2ABBB5" transform="translate(-470 -468) scale(2.9 2.9)" d="M582.17 504.861C584.566 509.165 587.035 513.614 590.795 516.894C593.089 518.896 595.978 520.514 599.121 520.154C602.776 519.734 604.919 517.338 606.745 514.366C611.69 506.317 613.643 495.253 615.713 486.091C620.941 462.948 631.748 382.078 644.641 367.605C645.853 366.245 647.751 364.747 649.687 364.8C653.932 364.916 656.444 369.907 658.041 373.263C663.275 384.26 665.758 397.164 668.263 409.018C670.655 420.341 673.214 431.68 675.125 443.094C678.084 460.76 680.319 478.913 684.83 496.257C687.037 504.739 690.867 518.673 697.673 524.688C699.386 526.203 701.429 527.227 703.765 526.962C719.039 525.228 727.719 472.313 738.555 459.22C740.117 457.333 742.23 455.753 744.762 455.684C757.37 455.337 769.676 500.969 774.135 510.853C776.776 516.706 780.121 522.131 784.509 526.843C796.164 539.356 811.594 542.467 828.046 543.02L827.915 544.005C824.201 543.908 820.485 544.119 816.806 544.636C784.64 549.141 773.822 576.42 764.019 603.64C761.105 611.732 758.421 620.792 753.085 627.664C751.265 630.008 748.619 632.59 745.482 632.81C732.965 633.686 722.725 580.071 710.84 569.952C708.822 568.234 706.188 566.949 703.473 567.21C678.535 569.603 674.247 685.988 655.044 706.873C653.4 708.661 651.75 709.974 649.204 709.936C644.342 709.863 641.335 704.131 639.372 700.374C633.794 689.7 630.444 677.99 627.865 666.27C624.084 649.091 619.973 601.569 607.38 590.172C605.676 588.63 603.642 587.497 601.278 587.753C596.862 588.231 593.739 592.772 591.885 596.388C584.087 611.594 580.472 636.967 577.436 654.056C574.891 668.378 572.304 682.83 569.241 697.046C566.295 710.714 558.869 740.215 550.017 750.563C548.673 752.135 546.832 753.574 544.652 753.505C539.283 753.333 535.829 745.521 534.17 741.2C529.705 729.572 527.845 716.682 525.743 704.451C522.495 685.553 519.848 666.471 515.992 647.689C514.289 639.393 512.76 630.571 509.492 622.734C507.631 618.271 505.2 614.437 501.457 611.282C487.164 599.236 472.664 612.57 459.965 619.633C457.573 620.963 454.576 622.711 451.802 622.836C450.418 622.899 449.61 622.474 448.592 621.562C447.939 616.423 448.146 601.877 448.095 596.075C448.012 575.069 448.081 554.063 448.303 533.058C448.431 505.441 448.369 477.823 448.117 450.207C448.026 434.45 447.847 418.688 448.032 402.933C448.069 399.771 448.364 395.083 451.506 393.53C455.878 394.301 477.757 407.678 483.143 410.76C482.15 424.963 483.392 443.742 483.075 458.628C483.33 473.262 482.19 487.53 483.388 502.149C485.906 532.858 521.574 550.928 547.227 533.388C555.322 527.852 561.121 521.513 563.113 511.702C570.516 509.675 575.234 507.842 582.17 504.861Z"/><path fill="#2ABBB5" transform="translate(-470 -468) scale(2.9 2.9)" d="M281.923 461.518C282.492 462.178 285.836 476.673 286.42 478.913C281.472 482.27 274.917 485.535 269.673 488.696C258.845 495.225 248.028 501.762 236.948 507.853C282.18 536.607 329.928 563.571 375.823 591.422C397.13 604.553 418.803 618.019 440.542 630.344C459.089 640.859 469.707 618.958 486.789 617.085C492.364 616.474 498.354 622.621 502.043 626.312C490.214 634.488 477.118 641.601 464.806 649.032C460.118 651.861 454.948 654.875 450.014 657.226C443.501 654.319 430.477 646.043 424.087 642.196L378.708 615.066L298.221 566.743C283.976 558.456 269.827 550.006 255.776 541.394C244.838 534.799 229.6 527.447 222.59 517.004C221.242 519.064 219.925 521.143 218.64 523.243C211.109 535.49 207.134 547.401 210.828 561.714C216.556 583.906 231.96 592.961 250.302 603.415C257.819 607.626 265.257 611.976 272.613 616.462C288.504 626.58 304.993 635.988 321.156 645.659L404.86 695.759C418.545 703.945 432.912 712.04 446.237 720.616C456.856 714.923 467.545 708.264 477.953 702.113L512.361 682.105C512.835 688.883 513.861 694.097 515.439 700.699L466.982 729.474C460.757 733.132 452.275 738.571 445.993 741.621C439.805 739.307 424.435 729.172 418.134 725.302L365.512 693.16C339.408 677.303 313.209 661.525 287.167 645.552C273.081 636.912 258.602 628.852 244.691 619.865C235.716 614.068 225.953 609.327 217.335 602.942C195.742 588.5 185.193 559.836 192.315 534.448C195.097 524.32 200.479 515.095 207.926 507.689C213.988 501.685 222.335 497.014 229.744 492.745C247.244 482.659 264.348 471.401 281.923 461.518Z"/><path fill="#FAAA50" transform="translate(-470 -468) scale(2.9 2.9)" d="M523.761 383.707C530.952 383.32 538.165 386.04 543.904 390.308C558.264 400.987 556.981 414.59 556.981 430.756L556.971 458.747L556.98 485.573C556.976 497.281 558.104 508.811 550.106 518.345C542.693 527.181 536.307 530.171 525.025 531.417C516.551 530.58 510.23 529.062 503.46 523.604C490.39 513.068 491.385 500.061 491.372 484.9L491.355 456.832L491.208 429.007C491.19 425.293 491.296 421.353 491.211 417.68C490.757 398.138 504.843 385.095 523.761 383.707Z"/><path fill="#FAAA50" transform="translate(-470 -468) scale(2.9 2.9)" d="M361.352 384.193C377.573 382.929 392.743 394.253 395.905 410.671C397 416.357 396.507 424.591 396.518 430.478L396.552 462.772L396.559 488.387C396.558 491.053 396.435 494.11 396.532 496.719C397.234 515.778 385.063 528.796 366.698 531.463C353.12 531.939 342.028 526.25 335.038 514.535C329.957 506.019 330.952 495.428 330.957 485.876L330.994 457.495L331.061 428.151C331.096 416.386 330.134 406.119 338.049 396.191C344.13 388.563 351.754 385.193 361.352 384.193Z"/><path fill="#FAAA50" transform="translate(-470 -468) scale(2.9 2.9)" d="M370.465 338.506C370.283 338.416 370.1 338.326 369.918 338.236C364.488 334.884 353.096 326.579 350.784 320.766C350.259 319.246 351.193 316.459 352.271 315.313C369.823 296.656 400.361 280.624 424.845 276.863C459.413 271.291 493.852 280.275 521.864 301.285C524.684 303.514 527.785 305.642 530.443 308.056C536.883 313.905 543.741 316.785 536.83 325.523C536.851 327.812 536.813 327.694 537.853 329.726L538.847 330.471C536.136 332.099 534.317 333.164 531.444 334.529L527.878 333.69C525.22 336.217 523.722 337.023 520.505 338.462C514.96 336.094 510.397 331.18 505.679 327.206C494.562 317.898 481.391 311.368 467.252 308.156C441.523 302.2 411.483 306.974 389.915 322.773C383.753 327.287 376.315 335.107 370.465 338.506Z"/><path fill="#0C0019" transform="translate(-470 -468) scale(2.9 2.9)" d="M536.83 325.523C536.851 327.812 536.813 327.694 537.853 329.726L538.847 330.471C536.136 332.099 534.317 333.164 531.444 334.529L527.878 333.69L536.83 325.523Z"/><path fill="#FAAA50" transform="translate(-470 -468) scale(2.9 2.9)" d="M324.781 413C325.812 412.963 325.315 412.853 326.265 413.366C326.734 415.359 326.519 432.594 326.525 436.116L326.466 502.461C316.951 500.139 310.394 497.313 303.277 490.637C297.434 484.83 293.103 477.68 290.662 469.812C285.751 453.611 291.584 435.074 303.829 423.605C309.924 417.897 316.932 415.321 324.781 413Z"/><path fill="#FAAA50" transform="translate(-470 -468) scale(2.9 2.9)" d="M561.771 412.74C570.027 413.973 576.767 417.339 582.873 423.027C602.561 441.369 604.168 469.644 585.741 489.535C579.36 495.891 570.681 500.045 561.961 502.02C561.878 473.783 560.673 440.537 561.771 412.74Z"/><path fill="#2ABBB5" transform="translate(-470 -468) scale(2.9 2.9)" d="M446.585 363.409C450.062 363.965 488.157 387.618 494.059 391.065C490.978 394.991 488.921 397.817 486.216 402.003C477.568 396.66 458.31 383.605 449.352 381.422C446.057 382.243 445.001 382.737 441.936 384.124L402.768 407.437C400.52 402.518 398.538 398.193 395.97 393.419C410.036 384.332 424.667 376.177 438.966 367.471C441.42 365.977 444.012 364.681 446.585 363.409Z"/><path fill="#2ABBB5" transform="translate(-470 -468) scale(2.9 2.9)" d="M226.978 533.966C228.311 535.229 230.219 536.463 231.752 537.534C226.198 547.275 227.066 560.158 231.597 570.093C237.017 581.979 254.559 590.066 265.677 596.361C275.301 601.772 284.848 607.321 294.315 613.005L443.202 701.32L443.036 707.411C426.898 697.406 411.365 688.942 395.196 679.367L290.023 616.474C281.325 611.134 272.556 605.909 263.719 600.801C255.176 595.873 246.583 591.289 238.753 585.246C223.634 573.577 218.902 551.101 226.978 533.966Z"/><path fill="#2ABBB5" transform="translate(-470 -468) scale(2.9 2.9)" d="M237.42 542.609C238.514 543.171 240.308 544.356 241.415 545.044C240.827 560.981 244.126 565.747 257.707 573.824C267.183 579.459 276.883 585.323 286.41 590.952L380.791 646.689C399.6 657.707 418.595 668.666 437.206 680.045C438.933 681.101 441.596 683.22 442.711 684.867C443.573 686.14 443.177 688.124 442.891 689.572L305.818 608.273C288.161 597.707 269.846 587.702 252.492 576.622C248.892 574.323 243.79 570.059 241.299 566.599C235.393 558.396 236.041 551.705 237.42 542.609Z"/><path fill="#2ABBB5" transform="translate(-470 -468) scale(2.9 2.9)" d="M246.309 547.294C251.598 549.602 252.4 553.389 257.316 556.187C270.467 563.671 283.495 571.423 296.518 579.081L390.475 633.73C408.136 644.017 425.84 653.761 442.99 664.972L443.024 670.668C431.565 662.519 407.023 649.368 394.232 642.065C363.766 624.671 333.467 606.986 303.339 589.013C287.212 579.585 270.466 570.3 254.656 560.355C249.505 557.114 247.378 553.338 246.309 547.294Z"/><path fill="#FAAA50" transform="translate(-470 -468) scale(2.9 2.9)" d="M538.847 330.471C540.284 329.896 540.845 329.318 542.159 330.131C545.687 332.313 548.159 336.113 550.39 339.37C562.033 356.366 568.832 375.235 573.135 395.222C574.356 400.894 574.73 404.109 574.555 409.787C570.031 408.593 566.2 407.55 561.743 406.056C559.914 378.735 546.769 356.228 531.444 334.529C534.317 333.164 536.136 332.099 538.847 330.471Z"/><path fill="#FAAA50" transform="translate(-470 -468) scale(2.9 2.9)" d="M347.432 329.302C349.185 329.723 355.564 333.612 357.502 334.73C339.118 356.069 331.644 378.722 326.658 405.783L322.262 406.836C319.677 407.738 316.497 408.614 313.833 409.415C316.327 382.143 327.51 348.837 347.432 329.302Z"/><path fill="#11376A" transform="translate(-470 -468) scale(2.9 2.9)" d="M828.046 543.02C830.665 542.944 834.036 542.734 836.587 542.956L836.951 543.93L837.22 543.89L837.34 543.05L837.744 543.789L837.821 543.147L838.358 543.557L837.795 543.792L837.757 543.144L837.325 543.889L837.233 543.048L836.827 543.961C833.571 544.147 831.179 544.104 827.915 544.005L828.046 543.02Z"/></svg>