<?xml version="1.0" encoding="utf-8" ?><svg xmlns="http://www.w3.org/2000/svg" width="600" height="700" viewBox="730 470 660 750"><path fill="#EA2020" transform="scale(2 2)" d="M500.219 262.202C513.562 261.185 528.273 262.238 541.144 265.665C572.634 274.073 599.52 294.595 615.933 322.754C632.102 350.929 636.413 384.375 627.917 415.729C620.844 441.371 610.314 453.839 593.5 472.902C587.354 479.904 581.277 486.967 575.27 494.089L545.888 528.585C539.251 536.404 527.405 551.774 519.192 556.426C517.276 557.175 515.273 557.676 513.23 557.919C500.882 559.381 494.484 549.574 487.318 541.407L468.258 519.686L430.776 476.868C422.004 466.895 411.188 455.952 404.533 444.715C395.837 429.759 390.431 413.12 388.678 395.909C385.376 363.674 395.287 331.478 416.146 306.682C437.042 281.145 467.351 265.11 500.219 262.202Z"/><path fill="white" transform="scale(2 2)" d="M507.608 288.256C560.234 286.855 604.037 328.37 605.46 380.996C606.883 433.621 565.386 477.442 512.761 478.887C460.105 480.332 416.253 438.806 414.83 386.149C413.406 333.492 454.951 289.658 507.608 288.256Z"/><path fill="#161109" transform="scale(2 2)" d="M538.53 375.575C557.921 374.208 550.785 400.048 551.881 413.303L551.953 414.129C555.692 410.769 564.616 400.327 568.259 399.079C584.878 393.39 588.149 411.887 574.877 421.894C566.002 428.585 554.063 446.297 543.736 450.06C540.263 450.554 535.113 450.378 532.611 447.786C526.192 441.136 499.831 418.891 499.013 411.05C498.686 408.065 499.578 405.076 501.485 402.758C511.293 390.985 523.776 408.842 530.833 415.436C531.174 408.082 530.794 400.557 530.793 393.188C530.791 385.003 530.548 379.651 538.53 375.575Z"/><path fill="#161109" transform="scale(2 2)" d="M475.791 326.598C484.649 326.012 487.841 329.129 493.835 335.147C501.632 342.975 509.425 350.463 516.956 358.606C523.221 365.381 519.649 375.314 510.706 376.862C503.116 377.909 495.209 366.695 489.505 361.822C489.405 369.642 489.848 377.911 489.471 385.696C489.245 390.362 487.753 392.9 484.329 395.773C463.791 405.273 468.337 371.553 468.304 360.867C462.87 365.239 459.004 371.455 452.306 374.133C443.564 377.63 435.406 365.902 440.471 358.767C443.874 353.974 450.369 347.817 454.761 343.778C460.821 338.204 467.923 328.6 475.791 326.598Z"/><path fill="#29DB70" transform="scale(2 2)" d="M525.523 303.432C553.38 309.016 576.051 327.081 583.481 355.045C584.171 357.645 586.563 367.838 585.435 369.819L584.123 370.012C581.489 370.195 578.729 370.291 576.081 370.419C569.777 336.563 556.24 321.746 522.742 313.636C523.556 310.238 524.571 306.801 525.523 303.432Z"/></svg>