<?xml version="1.0" encoding="utf-8" ?><svg xmlns="http://www.w3.org/2000/svg" xmlns:xlink="http://www.w3.org/1999/xlink" width="1024" height="1024" viewBox="0 0 1024 1024"><path fill="#1D1D34" d="M0 0L148.769 0L875.343 0L1024 0L1024 150.164L1024 873.392L1024 1024L876.882 1024L148.62 1024L0 1024L0 872.92L0 151.11L0 0Z"/><path fill="#FEFEFE" d="M0 0L148.769 0L148.137 0.143865C136.165 2.77107 128.009 2.8387 114.784 6.53176C78.157 17.0552 46.5256 40.3785 25.6454 72.2575C14.7521 89.1206 6.48948 108.763 2.93929 128.575C1.91433 134.294 1.2512 146.518 0 151.11L0 0Z"/><path fill="#FEFEFE" d="M0 872.92L0.13398 873.563C1.17916 878.789 1.54072 884.223 2.26058 889.513C8.20038 933.157 33.693 972.172 70.0011 996.741C87.3496 1008.52 106.921 1016.64 127.516 1020.59C132.961 1021.63 144.197 1022.74 148.62 1024L0 1024L0 872.92Z"/><path fill="#FEFEFE" d="M1024 873.392L1024 1024L876.882 1024C880.442 1022.8 893.555 1021.34 898.621 1020.29C920.154 1015.67 940.485 1006.6 958.312 993.668C988.883 971.647 1010.59 939.434 1019.51 902.83C1022.28 891.272 1022.18 884.315 1024 873.392Z"/><path fill="#FEFEFE" d="M875.343 0L1024 0L1024 150.164C1022.89 145.671 1022.03 134.346 1021.04 128.665C1017.61 109.818 1010.65 91.7893 1000.52 75.529C979.651 41.5782 946.685 16.8049 908.27 6.20679C902.648 4.67639 896.955 3.3694 891.207 2.41352C885.934 1.53656 880.536 1.3189 875.343 0Z"/><path fill="#E6B254" d="M334.668 258.567C330.066 246.311 328.908 234.461 335.064 222.34C339.544 213.517 347.343 206.571 356.812 203.521C366.681 200.286 377.43 201.088 386.709 205.753C397.527 211.306 403.913 220.684 407.496 232.05C420.737 226.755 434.972 222.074 448.075 216.701C467.53 208.723 468.142 216.658 474.102 233.038C495.889 224.452 518.149 216.789 539.975 208.236C552.052 203.504 563.693 197.361 573.882 209.853C575.469 211.798 576.281 214.581 577.295 216.861C586.589 241.429 595.716 266.064 604.881 290.681L662.824 446.457C670.55 467.176 678.12 488.44 686.048 509.033C726.608 514.034 758.382 530.312 784.329 562.793C805.5 589.296 816.369 626.738 812.101 660.518C812.044 660.95 811.98 661.382 811.909 661.813L841.755 668.078L801.046 705.776C795.011 711.322 786.734 718.369 781.187 723.961C770.459 699.043 759.142 672.912 749.34 647.606C759.709 649.792 770.049 652.112 780.358 654.567C780.502 649.345 780.638 644.26 780.326 639.032C777.73 595.591 742.796 553.763 699.944 544.261C703.462 552.548 706.82 562.213 709.985 570.74L728.379 620.786L738.14 647.212C741.363 655.852 746.801 665.883 743.12 674.833C740.531 681.128 735.874 683.897 729.85 686.162C700.962 697.022 672.041 707.773 643.144 718.598L495.905 773.701L423.139 800.771C410.649 805.428 397.937 810.503 385.274 814.564C374.056 818.162 365.665 810.19 361.961 800.421L253.488 506.011L215.318 402.6L203.285 370.071C199.994 361.187 193.7 349.439 198.003 340.372C199.62 336.98 202.241 334.167 205.511 332.316C209.95 329.796 227.893 323.612 234.024 321.372L286.933 301.799C286.867 301.682 286.802 301.565 286.736 301.448C276.513 279.099 281.212 278.126 301.865 270.723C311.948 267.109 325.382 262.65 334.668 258.567Z"/><path fill="#3AC3AB" d="M686.048 509.033C726.608 514.034 758.382 530.312 784.329 562.793C805.5 589.296 816.369 626.738 812.101 660.518C812.044 660.95 811.98 661.382 811.909 661.813L841.755 668.078L801.046 705.776C795.011 711.322 786.734 718.369 781.187 723.961C770.459 699.043 759.142 672.912 749.34 647.606C759.709 649.792 770.049 652.112 780.358 654.567C780.502 649.345 780.638 644.26 780.326 639.032C777.73 595.591 742.796 553.763 699.944 544.261C662.229 537.246 632.408 542.573 600.618 565.76C593.421 571.008 586.168 581.514 577.294 581.488C572.598 581.473 567.848 579.434 564.682 575.883C554.94 564.957 563.804 555.217 572.06 547.758C605.169 517.848 642.087 507.016 686.048 509.033Z"/><path fill="#4F4F52" d="M334.668 258.567C330.066 246.311 328.908 234.461 335.064 222.34C339.544 213.517 347.343 206.571 356.812 203.521C366.681 200.286 377.43 201.088 386.709 205.753C397.527 211.306 403.913 220.684 407.496 232.05C420.737 226.755 434.972 222.074 448.075 216.701C467.53 208.723 468.142 216.658 474.102 233.038C474.124 234.721 478.147 244.79 478.943 246.928C448.897 256.514 414.213 270.659 384.273 281.785L324.561 303.962C319.955 305.677 294.226 314.563 292.622 316.884C290.769 311.839 288.873 306.811 286.933 301.799C286.867 301.682 286.802 301.565 286.736 301.448C276.513 279.099 281.212 278.126 301.865 270.723C311.948 267.109 325.382 262.65 334.668 258.567Z"/><path fill="#1D1D34" d="M364.837 222.914C372.19 221.317 379.447 225.974 381.059 233.323C382.67 240.673 378.028 247.939 370.682 249.566C363.315 251.197 356.023 246.538 354.407 239.168C352.791 231.798 357.464 224.515 364.837 222.914Z"/><path fill="#3E3E47" d="M478.943 246.928C481.754 254.108 486.301 263.632 476.583 268.045C469.505 271.259 462.033 273.767 454.732 276.458L415.786 290.888L344.682 317.4C334.085 321.313 323.374 325.27 312.76 329.119C299.082 334.079 296.749 328.993 292.622 316.884C294.226 314.563 319.955 305.677 324.561 303.962L384.273 281.785C414.213 270.659 448.897 256.514 478.943 246.928Z"/><path fill="#FE8477" d="M493.629 329.045C499.524 328.426 507.069 331.083 509.64 336.776C513.79 345.965 517.206 355.751 520.737 365.22L540.485 418.21L565.572 485.483C569.669 496.399 574.025 507.292 577.91 518.252C580.235 524.814 575.257 533.75 568.948 536.353C561.565 539.399 554.153 542.141 546.681 544.939L502.419 561.453C482.96 568.933 463.463 576.31 443.929 583.586C435.452 586.76 422.352 592.128 414.113 594.45C407.618 595.346 399.754 592.956 396.89 586.538C392.768 577.3 389.463 567.356 385.997 557.815L367.596 507.633L342.303 439.009C338.059 427.5 333.663 415.971 329.71 404.372C327.5 397.883 331.554 389.882 337.845 387.266C347.633 383.196 357.609 379.614 367.538 375.905L423.234 355.119L467.827 338.257C474.761 335.633 486.786 330.713 493.629 329.045Z"/><path fill="#FEFEFE" d="M476.51 407.998C485.308 408.675 514.163 431.843 520.129 439.308C523.311 443.29 534.705 475.519 537.067 481.886C526.791 486.575 511.037 492.091 500.128 496.186C476.943 504.788 453.828 513.577 430.785 522.552C423.535 525.129 410.863 530.475 403.831 532.078C401.205 527.822 399.857 523.659 398.069 518.996C401.257 502.184 405.823 484.722 409.222 467.876C412.811 450.085 422.418 457.553 433.729 462.769C442.787 466.947 452.695 472.163 462.365 475.51C464.208 470.844 465.222 461.929 465.845 456.785L469.166 429.688C469.85 424.31 470.399 418.758 471.674 413.496C472.515 410.023 473.448 409.811 476.51 407.998Z"/><path fill="#FEFEFE" d="M391.261 395.717C404.55 394.141 416.617 403.595 418.265 416.875C419.913 430.155 410.524 442.272 397.253 443.992C383.88 445.726 371.649 436.249 369.989 422.867C368.328 409.485 377.871 397.305 391.261 395.717Z"/><path fill="#FEFEFE" d="M499.206 513.609C500.813 513.458 503.245 513.143 504.796 513.604C511.33 515.546 515.218 523.305 512.643 529.671C511.021 533.683 508.752 534.723 504.983 536.336L499.724 537.998C497.485 530.931 494.159 523.355 492.321 516.442L499.206 513.609Z"/><path fill="#FE8477" d="M500.252 516.987C508.658 516.565 513.053 527.529 505.844 532.406C504.214 532.999 503.999 533.332 502.433 533.098C500.716 529.652 497.993 522.555 497.06 518.836C498.124 517.474 498.356 517.736 500.252 516.987Z"/><path fill="#FEFEFE" d="M533.341 501.052L534.73 502.712C534.949 506.179 528.853 504.722 526.501 508.14C526.499 509.884 526.31 509.062 527.215 510.663C530.524 512.384 537.811 508.038 540.281 513.412C544.641 522.9 536.113 528.089 527.62 524.509C527.439 523.501 527.537 523.554 527.656 522.493C529.471 521.078 531.28 522.297 533.646 522.211C538.239 522.043 538.58 516.199 535.496 513.814C531.643 513.149 529.891 516.143 526.536 516.798C524.479 515.63 522.707 508.646 521.499 505.726C525.23 503.999 529.465 502.508 533.341 501.052Z"/><path fill="#FEFEFE" d="M433.037 538.494C434.03 538.302 433.513 538.269 434.576 538.709C435.444 540.315 435.405 539.542 434.993 541.077C432.928 542.723 428.657 543.943 425.929 544.957L428.422 551.006C431.207 550.054 435.84 547.297 437.86 549.427C438.819 553.392 432.713 550.994 430.211 555.2L430.776 557.12C431.537 559.147 432.248 561.193 432.908 563.255L432.504 564.037C431.025 564.621 431.189 564.784 429.795 564.604C426.791 558.576 423.649 549.495 421.2 542.987C424.552 541.924 429.564 539.795 433.037 538.494Z"/><path fill="#FEFEFE" d="M487.906 517.987C488.64 518.686 489.197 519.465 489.183 520.495C489.124 524.618 488.74 540.994 486.885 543.725C485.327 544.327 486.063 544.348 484.605 543.809C483.684 542.406 484.476 534.027 484.546 531.692C484.865 528.897 484.92 525.856 485.037 523.028C481.966 524.176 477.296 527.011 474.551 526.022C473.537 524.706 473.753 525.416 473.74 523.868C477.09 522.01 483.846 519.738 487.906 517.987Z"/><path fill="#FEFEFE" d="M449.631 532.489L450.69 532.401C452.686 534.161 452.8 558.036 448.306 558.071C446.093 555.877 447.154 551.072 447.419 548.125C447.443 544.572 447.848 540.352 448.108 536.75C444.982 537.976 440.044 540.397 436.835 539.331L436.971 538.588C439.863 535.309 445.426 533.899 449.631 532.489Z"/><path fill="#FEFEFE" d="M469.512 525.017L470.229 524.993C473.1 526.968 471.147 546.236 469.477 549.749C469.105 550.533 468.213 550.431 467.392 550.605L466.702 550.028C466.536 546.737 467.089 541.575 467.366 538.123C467.49 535.188 467.659 532.256 467.873 529.326C464.544 530.48 459.543 533.021 456.099 532.09L456.207 531.415C459.318 528.168 465.186 526.538 469.512 525.017Z"/><path fill="#FEFEFE" d="M522.522 518.583C523.674 519.49 523.334 518.922 523.631 520.308C522.394 522.435 518.476 523.283 516.11 523.991C514.677 523.169 515.073 523.767 514.641 522.342C516.126 520.032 519.795 519.378 522.522 518.583Z"/><path fill="#3AC3AB" d="M678.487 744.527C704.834 743.669 735.58 744.449 762.268 744.433L808.191 744.4C814.673 744.398 835.979 743.548 840.296 746.121C841.005 748.076 841.333 750.017 841.344 752.103C841.436 770.306 841.463 788.368 841.396 806.59C841.357 817.418 841.969 829.022 841.129 839.851C840.98 841.766 839.967 842.592 838.483 843.621C810.986 844.497 780.025 843.672 752.121 843.704L707.463 843.769C702.113 843.778 679.406 844.665 676.49 841.994C675.48 839.041 675.41 836.112 675.424 833.026C675.549 806.441 675.461 779.858 675.395 753.273C675.385 749.085 675.388 747.462 678.487 744.527Z"/><path fill="#1D1D34" d="M684.483 753.34C732.652 754.259 783.728 753.593 832.075 753.382L832.185 835.03L684.471 835.062C684.193 807.936 684.425 780.489 684.483 753.34Z"/><path fill="#3AC3AB" d="M707.776 771.204C710.943 771.593 742.205 788.296 745.483 790.555L745.501 796.219C735.36 801.7 725.183 807.114 714.971 812.461C712.138 814.044 709.42 816.396 706.715 813.863C705.821 811.598 706.116 810.02 706.231 807.574C713.651 803.238 725.453 797.546 733.356 793.458C724.496 788.565 715.079 784.399 706.148 779.53C705.959 775.72 705.408 774.144 707.776 771.204Z"/><path fill="#3AC3AB" d="M762.641 811.67C778.65 811.657 795.212 811.259 811.145 811.671C811.234 814.226 811.226 816.947 811.258 819.517L762.735 819.542L762.641 811.67Z"/></svg>